<?xml version="1.0" standalone="no"?>
<!DOCTYPE svg PUBLIC "-//W3C//DTD SVG 20010904//EN"
 "http://www.w3.org/TR/2001/REC-SVG-20010904/DTD/svg10.dtd">
<svg version="1.0" xmlns="http://www.w3.org/2000/svg"
 width="500.000000pt" height="500.000000pt" viewBox="0 0 500.000000 500.000000"
 preserveAspectRatio="xMidYMid meet">
<metadata>
Created by potrace 1.16, written by Peter Selinger 2001-2019
</metadata>
<g transform="translate(0.000000,500.000000) scale(0.100000,-0.100000)"
fill="#000000" stroke="none">
<path d="M2429 4726 c-3 -3 -48 -10 -100 -15 -60 -6 -108 -17 -134 -30 -21
-12 -46 -21 -55 -21 -9 0 -27 -11 -40 -25 -12 -13 -26 -22 -30 -20 -5 3 -23
-12 -41 -33 -18 -20 -37 -39 -44 -42 -33 -15 -111 -122 -100 -140 3 -5 -5 -16
-17 -24 -35 -23 -53 -94 -39 -153 6 -27 11 -66 10 -88 -1 -22 -1 -56 -1 -75 1
-19 1 -44 0 -55 -2 -37 13 -130 23 -140 14 -15 11 -25 -10 -25 -32 0 -44 -26
-38 -83 6 -55 44 -186 58 -201 4 -5 5 -29 2 -54 l-6 -44 43 3 42 4 24 -80 c26
-88 32 -213 12 -233 -7 -7 -31 -12 -54 -12 l-43 0 6 -37 c14 -92 124 -256 228
-339 33 -26 80 -65 104 -86 60 -52 200 -144 258 -170 59 -26 190 -20 276 12
151 57 227 203 166 320 -20 38 -39 52 -39 30 0 -21 -42 16 -56 49 -16 38 -13
71 22 210 14 56 35 111 51 134 62 88 71 104 87 153 11 34 24 54 36 57 23 6 28
55 8 75 -8 8 -5 26 15 70 38 85 39 211 2 239 -24 18 -24 18 -10 84 18 86 1
308 -26 325 -14 8 -11 42 7 80 17 36 7 90 -21 114 -7 6 -17 26 -21 43 -10 48
-68 101 -103 94 -17 -4 -36 0 -47 8 -11 8 -31 15 -45 15 -15 0 -37 8 -50 18
-13 10 -42 26 -64 36 -22 9 -53 24 -69 33 -29 16 -166 31 -177 19z m11 -71 c0
-3 -2 -5 -5 -5 -3 0 -5 2 -5 5 0 3 2 5 5 5 3 0 5 -2 5 -5z m183 -44 c10 6 21
8 25 5 3 -3 0 -6 -6 -6 -6 0 -9 -7 -6 -15 7 -17 -21 -21 -31 -5 -4 6 -16 8
-28 4 -23 -7 -53 -34 -40 -35 4 0 -1 -4 -12 -8 -11 -5 -25 -4 -32 1 -7 5 -16
7 -21 4 -4 -3 -6 8 -4 25 4 25 2 28 -13 22 -12 -4 -16 -3 -12 4 4 6 29 10 57
9 27 -1 50 1 50 5 0 4 12 2 27 -6 19 -10 32 -11 46 -4z m-235 -3 c8 -8 15 -8
27 2 13 11 14 10 9 -4 -4 -10 0 -18 10 -22 9 -4 16 -17 15 -33 l-1 -26 -10 28
c-10 27 -38 38 -38 15 0 -9 -3 -9 -12 0 -15 15 -48 16 -48 2 0 -5 5 -9 11 -7
6 1 13 -3 15 -8 4 -9 -18 -11 -57 -6 -16 2 -16 51 0 53 9 0 21 2 28 2 6 1 15
5 19 9 10 10 18 9 32 -5z m-148 -13 c0 -3 -2 -5 -5 -5 -3 0 -5 2 -5 5 0 3 2 5
5 5 3 0 5 -2 5 -5z m20 0 c0 -3 -2 -5 -5 -5 -3 0 -5 2 -5 5 0 3 2 5 5 5 3 0 5
-2 5 -5z m-40 -10 c0 -3 -2 -5 -5 -5 -3 0 -5 2 -5 5 0 3 2 5 5 5 3 0 5 -2 5
-5z m50 -20 c0 -3 -2 -5 -5 -5 -3 0 -5 2 -5 5 0 3 2 5 5 5 3 0 5 -2 5 -5z
m-100 -20 c-7 -9 -15 -13 -19 -10 -3 3 1 10 9 15 21 14 24 12 10 -5z m36 -1
c-22 -21 -20 -27 4 -14 11 6 20 16 20 23 0 9 2 9 8 -1 5 -7 16 -10 25 -6 9 3
18 2 18 -2 8 -63 8 -65 -12 -59 -10 4 -19 3 -19 -2 0 -5 -9 -9 -20 -10 -11 -1
-20 2 -20 7 0 9 -36 6 -77 -6 -28 -8 -29 0 -3 28 17 18 21 19 37 7 12 -10 15
-11 9 -1 -8 14 19 52 36 52 5 0 2 -7 -6 -16z m387 3 c-6 -9 51 -2 83 10 21 8
17 -11 -8 -33 -12 -10 -18 -13 -14 -6 9 16 -9 16 -34 0 -16 -10 -24 -10 -40 0
-24 15 -33 15 -25 2 8 -13 -55 -13 -75 0 -11 7 -11 10 -2 10 7 0 10 5 6 12 -4
7 -3 8 5 4 6 -4 8 -12 5 -18 -9 -14 37 0 55 17 15 15 53 16 44 2z m-183 -33
c0 -8 -4 -12 -10 -9 -5 3 -7 0 -4 -8 3 -8 1 -18 -5 -22 -6 -3 -11 -11 -11 -17
0 -6 7 -5 17 3 15 13 15 12 4 -8 -6 -13 -16 -23 -21 -23 -4 0 -15 -3 -24 -6
-11 -4 -16 0 -17 12 0 18 -1 18 -8 0 -6 -15 -10 -16 -15 -7 -5 8 1 23 15 39
55 62 79 76 79 46z m60 -20 c0 -13 -27 -1 -38 16 -12 20 -12 21 13 4 14 -9 25
-18 25 -20z m240 31 c0 -3 -2 -5 -5 -5 -3 0 -5 2 -5 5 0 3 2 5 5 5 3 0 5 -2 5
-5z m-590 -15 c0 -5 -4 -10 -10 -10 -5 0 -10 5 -10 10 0 6 5 10 10 10 6 0 10
-4 10 -10z m190 -5 c0 -3 -2 -5 -5 -5 -3 0 -5 2 -5 5 0 3 2 5 5 5 3 0 5 -2 5
-5z m589 -9 c9 -11 7 -15 -7 -18 -12 -4 -18 1 -19 13 -2 22 10 25 26 5z m-479
-11 c0 -3 -2 -5 -5 -5 -3 0 -5 2 -5 5 0 3 2 5 5 5 3 0 5 -2 5 -5z m120 0 c0
-3 -2 -5 -5 -5 -3 0 -5 2 -5 5 0 3 2 5 5 5 3 0 5 -2 5 -5z m-366 -20 c3 -8 1
-15 -4 -15 -6 0 -10 7 -10 15 0 8 2 15 4 15 2 0 6 -7 10 -15z m-84 -14 c0 -10
-8 -21 -18 -23 -11 -3 -19 0 -19 7 0 7 6 11 14 8 7 -3 13 2 13 11 0 9 2 16 5
16 3 0 5 -8 5 -19z m-60 4 c0 -3 -2 -5 -5 -5 -3 0 -5 2 -5 5 0 3 2 5 5 5 3 0
5 -2 5 -5z m110 -15 c0 -11 -5 -20 -11 -20 -6 0 -9 -5 -7 -12 7 -21 -22 -45
-48 -40 -33 6 -30 22 4 22 19 0 23 3 13 9 -11 7 -10 12 8 22 11 8 21 19 21 26
0 7 5 13 10 13 6 0 10 -9 10 -20z m80 1 c14 -28 13 -34 -9 -28 -10 2 -26 0
-35 -5 -20 -11 -21 1 0 30 19 27 30 28 44 3z m37 2 c-4 -3 -7 0 -7 7 0 7 3 10
7 7 3 -4 3 -10 0 -14z m30 -15 c-22 -14 -28 -8 -16 13 9 17 13 19 20 8 5 -8 3
-16 -4 -21z m433 20 c0 -4 9 -9 19 -13 11 -3 22 -14 25 -23 4 -9 24 -27 46
-40 26 -15 37 -27 34 -37 -4 -10 0 -15 11 -15 9 0 30 -9 47 -21 24 -17 28 -26
23 -48 -4 -19 2 -44 19 -77 13 -27 31 -70 39 -95 18 -53 29 -199 16 -199 -12
0 -11 -37 1 -45 12 -7 5 -157 -9 -183 -5 -9 -7 -30 -6 -47 6 -47 -23 -151 -55
-204 -17 -26 -30 -51 -30 -55 0 -4 -16 -21 -35 -38 -43 -37 -51 -51 -59 -103
-4 -22 -12 -58 -18 -80 -6 -22 -11 -77 -11 -122 0 -102 7 -115 108 -201 27
-22 46 -102 25 -102 -5 0 -12 -11 -16 -23 -7 -30 -80 -86 -158 -122 -51 -24
-72 -28 -145 -28 -113 1 -133 4 -154 27 -9 11 -20 17 -23 13 -3 -3 -13 0 -20
6 -8 7 -20 17 -27 22 -7 6 -32 26 -57 45 -24 19 -58 50 -75 69 -53 61 -91 92
-107 88 -6 -1 -17 9 -24 23 -7 14 -19 25 -26 25 -7 0 -13 9 -14 20 -1 11 -2
25 -4 30 -1 6 -2 14 -1 18 1 5 -3 6 -8 2 -24 -14 -43 79 -20 102 7 7 7 23 -2
53 -9 30 -10 43 -1 49 6 3 18 20 26 36 20 39 20 240 0 272 -8 12 -14 29 -14
36 0 8 -9 26 -20 40 -11 14 -20 36 -21 49 l-1 23 -8 -25 c-4 -14 -8 -19 -9
-12 -1 6 -11 22 -23 34 -19 19 -22 32 -21 86 1 45 -2 62 -10 59 -7 -2 -13 -13
-15 -25 -4 -23 -18 -28 -40 -14 -9 6 -12 29 -10 74 2 58 4 65 20 60 10 -2 25
-13 32 -24 20 -28 22 -17 25 106 1 59 8 130 15 157 7 27 9 49 5 49 -12 0 1 32
23 56 11 12 16 28 12 38 -4 9 -3 16 2 15 23 -4 32 3 27 21 -4 15 0 20 15 20
12 0 25 6 29 14 4 8 14 16 22 18 8 2 27 15 42 30 27 26 44 31 129 42 66 8 93
17 134 45 52 36 115 44 179 22 l49 -16 21 26 c20 25 77 37 77 17z m180 -2 c0
-3 -4 -8 -10 -11 -5 -3 -10 -1 -10 4 0 6 5 11 10 11 6 0 10 -2 10 -4z m15 -35
c-8 -13 -35 -15 -35 -2 0 5 8 11 18 13 21 5 26 2 17 -11z m39 4 c3 -8 1 -15
-4 -15 -6 0 -10 7 -10 15 0 8 2 15 4 15 2 0 6 -7 10 -15z m-94 0 c0 -3 -2 -5
-5 -5 -3 0 -5 2 -5 5 0 3 2 5 5 5 3 0 5 -2 5 -5z m-670 -40 c0 -3 -2 -5 -5 -5
-3 0 -5 2 -5 5 0 3 2 5 5 5 3 0 5 -2 5 -5z m740 -5 c0 -5 -5 -10 -11 -10 -5 0
-7 5 -4 10 3 6 8 10 11 10 2 0 4 -4 4 -10z m-753 -17 c-4 -3 -10 -3 -14 0 -3
4 0 7 7 7 7 0 10 -3 7 -7z m-181 -71 c-8 -9 -19 -13 -22 -9 -10 9 16 38 28 31
6 -4 4 -13 -6 -22z m14 -57 c0 -3 -2 -5 -5 -5 -3 0 -5 2 -5 5 0 3 2 5 5 5 3 0
5 -2 5 -5z m1040 -551 c0 -13 -4 -24 -10 -24 -5 0 -10 14 -10 31 0 17 4 28 10
24 6 -3 10 -17 10 -31z M2220 4494 c0 -8 5 -12 10 -9 6 3 10 10 10 16 0 5 -4
9 -10 9 -5 0 -10 -7 -10 -16z M2670 4545 c0 -3 2 -5 5 -5 3 0 5 2 5 5 0 3 -2
5 -5 5 -3 0 -5 -2 -5 -5z M2580 4525 c0 -3 2 -5 5 -5 3 0 5 2 5 5 0 3 -2 5 -5
5 -3 0 -5 -2 -5 -5z M2245 4149 c-16 -5 -45 -8 -64 -7 -29 2 -40 -4 -72 -41
-58 -64 -49 -87 11 -31 18 17 40 30 49 31 75 2 158 12 165 19 5 5 6 16 3 24
-7 18 -44 20 -92 5z M2670 4153 c0 -24 29 -33 109 -33 82 0 86 -1 118 -32 42
-40 45 -17 4 32 l-29 35 -101 3 c-55 2 -101 0 -101 -5z M1990 4145 c0 -3 2 -5
5 -5 3 0 5 2 5 5 0 3 -2 5 -5 5 -3 0 -5 -2 -5 -5z M2010 4145 c0 -3 2 -5 5 -5
3 0 5 2 5 5 0 3 -2 5 -5 5 -3 0 -5 -2 -5 -5z M1990 4125 c0 -3 2 -5 5 -5 3 0
5 2 5 5 0 3 -2 5 -5 5 -3 0 -5 -2 -5 -5z M2405 4020 c-13 -15 -22 -17 -36 -10
-25 14 -35 12 -21 -2 16 -16 15 -28 -2 -28 -8 0 -18 -4 -21 -10 -4 -6 3 -6 21
0 69 27 7 -29 -83 -74 -59 -29 -78 -49 -35 -37 44 13 141 71 157 95 9 11 19
20 23 20 4 -1 16 9 28 21 19 21 19 23 3 33 -13 8 -21 7 -34 -8z M2668 4033
c-27 -7 -21 -23 7 -23 15 0 25 -6 25 -15 0 -9 -6 -12 -17 -9 -15 5 -15 3 2
-11 24 -20 82 -12 102 13 12 16 18 8 15 -19 -2 -9 68 -22 76 -15 8 9 -34 46
-51 46 -8 0 -30 6 -48 14 -41 16 -88 24 -111 19z m89 -40 c-4 -3 -7 0 -7 7 0
7 3 10 7 7 3 -4 3 -10 0 -14z M2290 3998 c-7 -19 -9 -20 -9 -4 -1 15 -6 17
-28 12 -16 -4 -39 -8 -51 -11 -41 -6 -87 -65 -51 -65 14 0 52 21 60 32 4 6 14
5 26 -3 33 -20 68 -5 70 31 3 36 -4 39 -17 8z M2650 3995 c0 -3 2 -5 5 -5 3 0
5 2 5 5 0 3 -2 5 -5 5 -3 0 -5 -2 -5 -5z M2485 3900 c-11 -16 -31 -32 -45 -35
-38 -10 -70 -45 -70 -77 0 -21 6 -31 23 -37 28 -11 43 -3 22 13 -33 24 7 82
60 88 22 2 32 10 39 31 15 41 -5 53 -29 17z M2170 3855 c0 -3 2 -5 5 -5 3 0 5
2 5 5 0 3 -2 5 -5 5 -3 0 -5 -2 -5 -5z M2457 3804 c-11 -12 3 -24 28 -24 13 0
27 -4 30 -10 9 -15 25 -12 25 5 0 23 -66 45 -83 29z M2595 3790 c-4 -6 5 -10
19 -10 18 0 26 -5 26 -17 0 -13 3 -14 11 -6 7 7 9 19 6 27 -7 18 -52 22 -62 6z
M1980 3725 c0 -3 2 -5 5 -5 3 0 5 2 5 5 0 3 -2 5 -5 5 -3 0 -5 -2 -5 -5z
M2465 3614 c-22 -8 -64 -13 -94 -12 -46 1 -57 -2 -73 -22 -24 -29 -4 -59 28
-42 11 5 36 12 57 16 21 4 47 16 58 27 10 10 31 19 47 19 37 0 60 15 37 24 -9
3 -17 6 -18 6 -1 -1 -20 -8 -42 -16z M2581 3621 c-15 -9 7 -21 39 -21 11 0 28
-9 39 -21 13 -15 29 -20 53 -18 18 2 39 -1 46 -5 17 -10 27 0 27 30 1 22 -2
23 -37 18 -21 -4 -44 -2 -50 3 -18 14 -101 24 -117 14z M2563 3223 c-18 -2
-33 -9 -33 -15 0 -6 10 -8 23 -4 12 3 32 6 45 6 13 0 20 4 17 10 -3 6 -9 9
-13 8 -4 0 -22 -3 -39 -5z M2640 3225 c0 -3 2 -5 5 -5 3 0 5 2 5 5 0 3 -2 5
-5 5 -3 0 -5 -2 -5 -5z M2220 2745 c0 -3 2 -5 5 -5 3 0 5 2 5 5 0 3 -2 5 -5 5
-3 0 -5 -2 -5 -5z M1861 3116 c-6 -7 -24 -16 -39 -19 -58 -12 -139 -35 -160
-46 -23 -12 -227 -78 -357 -116 -174 -50 -286 -126 -342 -232 -48 -93 -123
-309 -123 -357 0 -12 -16 -66 -35 -120 -30 -82 -36 -113 -36 -180 0 -45 0
-211 1 -370 l1 -288 29 -11 c25 -9 29 -17 35 -61 12 -99 47 -273 82 -411 19
-77 41 -168 49 -203 19 -85 61 -211 82 -244 22 -34 139 -156 162 -168 27 -14
101 -12 146 4 23 8 110 16 215 20 98 3 223 15 285 26 206 37 289 59 564 152
194 65 368 117 472 142 10 2 34 -7 55 -21 56 -38 170 -100 253 -139 41 -19 84
-39 95 -44 63 -31 269 -91 390 -114 77 -14 172 -34 211 -42 113 -26 155 -4
222 119 52 94 68 151 83 294 15 153 7 474 -14 525 -36 86 -149 126 -382 135
-172 6 -300 -16 -361 -62 l-33 -25 -14 53 c-16 56 -42 316 -40 407 1 53 1 54
-9 20 -6 -22 -7 -75 -3 -140 13 -182 13 -175 -15 -176 -46 -2 -50 -4 -50 -24
0 -39 -30 -70 -84 -85 -51 -15 -55 -14 -153 15 -99 29 -452 161 -525 195 -34
17 -35 19 -27 54 19 80 6 239 -28 348 -22 73 -33 57 -17 -24 8 -38 17 -133 21
-212 6 -139 5 -144 -13 -138 -10 3 -53 18 -94 33 -88 32 -230 38 -455 16 -183
-17 -194 -20 -185 -57 1 -5 2 -91 1 -191 l-2 -181 78 -7 c43 -4 98 -12 123
-18 25 -5 70 -14 100 -18 228 -34 248 -42 405 -160 203 -153 309 -260 289
-292 -4 -7 -3 -8 4 -4 7 4 12 3 12 -3 0 -12 -55 -43 -62 -36 -7 7 -117 -32
-136 -47 -13 -10 -14 -10 -8 0 4 6 6 12 4 12 -15 -1 -258 -87 -254 -91 2 -2
-8 -4 -22 -5 -15 0 -92 -20 -171 -43 -79 -23 -146 -40 -149 -37 -3 3 -10 2
-16 -4 -14 -11 -220 -29 -394 -35 -70 -2 -154 -11 -187 -19 -37 -9 -64 -11
-70 -5 -5 5 -16 9 -25 9 -8 0 -24 13 -35 29 -10 16 -22 28 -26 26 -3 -3 -5 7
-3 21 1 15 -4 28 -12 31 -8 3 -14 11 -14 19 0 8 -5 14 -11 14 -5 0 -8 4 -5 9
3 4 -6 19 -19 31 -19 18 -25 34 -25 67 0 31 -4 43 -14 43 -8 0 -14 8 -14 18 1
18 -39 169 -49 185 -9 15 -34 125 -40 174 -3 24 -8 41 -13 38 -4 -2 -11 31
-14 75 -4 43 -16 103 -27 132 -25 70 -25 115 1 123 11 3 20 11 20 16 0 5 12 9
26 9 14 0 23 4 19 9 -9 15 98 24 186 17 134 -12 447 -8 472 6 21 11 20 12 -18
19 -73 12 -518 19 -596 10 -41 -6 -109 -21 -150 -34 -98 -31 -103 -28 -78 38
16 43 19 75 18 176 -1 68 -1 159 0 202 0 43 -3 86 -8 96 -13 24 7 180 28 216
9 17 24 30 32 30 11 0 13 15 11 79 -4 79 29 216 50 216 5 0 7 4 3 9 -3 5 2 16
10 24 8 9 15 24 15 35 0 11 7 25 15 32 8 7 19 29 25 49 5 20 25 52 45 71 19
19 42 49 50 65 23 46 142 103 186 90 9 -3 22 1 29 10 7 8 19 15 27 15 8 0 12
4 9 9 -8 12 41 32 61 24 10 -4 14 -2 10 4 -8 13 224 86 249 77 16 -5 17 -4 4
6 -12 9 -10 10 13 6 16 -4 27 -2 27 4 0 6 12 9 28 8 43 -3 157 60 140 77 -3 3
-10 -1 -17 -9z m-581 -201 c0 -3 -2 -5 -5 -5 -3 0 -5 2 -5 5 0 3 2 5 5 5 3 0
5 -2 5 -5z m-23 -12 c-4 -3 -10 -3 -14 0 -3 4 0 7 7 7 7 0 10 -3 7 -7z m-377
-668 c0 -3 -2 -5 -5 -5 -3 0 -5 2 -5 5 0 3 2 5 5 5 3 0 5 -2 5 -5z m1494 -706
c39 -12 78 -27 86 -34 8 -7 44 -23 80 -35 36 -12 83 -30 105 -40 105 -47 139
-60 150 -60 8 0 15 -5 17 -11 2 -6 17 -12 33 -13 17 -1 39 -7 50 -13 47 -25
153 -55 193 -54 23 0 54 -4 67 -9 16 -6 25 -6 25 0 0 6 5 10 11 10 5 0 24 13
42 30 46 43 97 37 97 -12 0 -22 23 -34 82 -43 49 -7 92 1 83 15 -3 5 15 15 42
21 36 10 42 14 28 19 -13 5 3 9 45 14 84 10 240 13 240 5 0 -4 33 -9 73 -12
133 -10 190 -44 218 -130 15 -45 20 -364 8 -467 -6 -47 -17 -147 -21 -187 -1
-7 -5 -10 -10 -7 -4 3 -8 -1 -8 -9 0 -8 -8 -21 -18 -30 -10 -9 -29 -37 -41
-62 -38 -75 -56 -82 -171 -59 -8 2 -55 10 -105 18 -121 19 -236 45 -259 58
-21 11 -119 47 -153 55 -13 3 -23 9 -23 14 0 5 -7 9 -15 9 -28 0 -219 92 -253
121 -70 62 -163 88 -194 55 -11 -12 -18 -11 -43 7 -34 24 -197 162 -262 222
-58 54 -73 67 -73 61 0 -3 -11 6 -25 20 -14 14 -30 22 -35 19 -6 -4 -9 -1 -8
7 2 7 -5 12 -14 12 -10 -1 -16 2 -13 6 7 11 -22 33 -34 25 -7 -3 -8 0 -5 9 4
11 0 16 -15 16 -31 0 -35 1 -49 19 -10 12 -12 12 -6 1 7 -12 5 -13 -8 -2 -8 6
-37 14 -64 17 -27 3 -89 12 -139 21 -49 8 -115 18 -145 23 -30 4 -69 14 -86
24 -41 22 -76 75 -63 98 5 11 4 48 -3 99 -14 103 1 131 78 142 206 30 403 29
508 -3z m106 -34 c0 -3 -2 -5 -5 -5 -3 0 -5 2 -5 5 0 3 2 5 5 5 3 0 5 -2 5 -5z
m1427 -171 c-3 -3 -12 -4 -19 -1 -8 3 -5 6 6 6 11 1 17 -2 13 -5z m-2797 -809
c0 -3 -2 -5 -5 -5 -3 0 -5 2 -5 5 0 3 2 5 5 5 3 0 5 -2 5 -5z M2870 1325 c0
-3 2 -5 5 -5 3 0 5 2 5 5 0 3 -2 5 -5 5 -3 0 -5 -2 -5 -5z M3120 1255 c0 -3 2
-5 5 -5 3 0 5 2 5 5 0 3 -2 5 -5 5 -3 0 -5 -2 -5 -5z M3750 1179 c0 -6 108
-39 172 -53 29 -7 47 9 29 27 -12 12 -201 37 -201 26z M1370 2925 c0 -3 2 -5
5 -5 3 0 5 2 5 5 0 3 -2 5 -5 5 -3 0 -5 -2 -5 -5z M3019 2797 c6 -8 38 -25 71
-38 33 -13 60 -27 60 -31 0 -5 4 -8 10 -8 5 0 33 -11 62 -24 29 -13 76 -32
103 -42 68 -25 182 -81 189 -92 3 -6 15 -8 26 -5 10 3 26 -2 35 -11 9 -9 13
-16 8 -16 -4 0 13 -20 40 -44 26 -24 47 -47 47 -50 0 -12 45 -51 55 -48 5 2 7
1 3 -3 -4 -4 4 -25 18 -46 23 -37 107 -206 110 -221 1 -5 2 -9 4 -10 1 -2 3
-10 5 -19 8 -42 80 -256 92 -274 7 -11 13 -31 13 -45 0 -14 5 -32 10 -40 25
-39 7 64 -23 131 -19 41 -37 95 -40 121 -16 116 -150 405 -210 451 -18 13 -52
50 -77 81 -36 44 -57 61 -105 80 -168 68 -309 127 -368 155 -93 45 -153 65
-138 48z M1020 2685 c0 -3 2 -5 5 -5 3 0 5 2 5 5 0 3 -2 5 -5 5 -3 0 -5 -2 -5
-5z M1760 2650 c0 -7 3 -10 7 -7 3 4 3 10 0 14 -4 3 -7 0 -7 -7z M1778 2560
c-4 -8 -9 -37 -11 -65 l-5 -50 14 45 c14 43 15 104 2 70z M3477 2327 c-21 -41
-38 -87 -32 -87 6 0 56 112 52 116 -1 2 -10 -11 -20 -29z M1720 2159 c-6 -11
-10 -25 -7 -32 2 -6 9 3 15 21 12 36 8 42 -8 11z M1735 2014 c-17 -41 -21 -91
-5 -63 10 17 30 99 24 99 -2 0 -11 -16 -19 -36z M3311 2024 c0 -11 3 -14 6 -6
3 7 2 16 -1 19 -3 4 -6 -2 -5 -13z M1773 1957 c-41 -62 -50 -94 -12 -47 23 29
62 101 57 105 -2 2 -22 -24 -45 -58z M3310 1955 c0 -3 2 -5 5 -5 3 0 5 2 5 5
0 3 -2 5 -5 5 -3 0 -5 -2 -5 -5z M3310 1915 c0 -3 2 -5 5 -5 3 0 5 2 5 5 0 3
-2 5 -5 5 -3 0 -5 -2 -5 -5z M3991 1684 c0 -11 3 -14 6 -6 3 7 2 16 -1 19 -3
4 -6 -2 -5 -13z M4000 1649 c0 -44 93 -249 112 -249 5 0 2 10 -6 23 -8 12 -33
69 -56 127 -44 111 -50 122 -50 99z M1695 1460 c3 -5 8 -10 11 -10 3 0 2 5 -1
10 -3 6 -8 10 -11 10 -3 0 -2 -4 1 -10z M4130 1370 c0 -7 3 -10 7 -7 3 4 3 10
0 14 -4 3 -7 0 -7 -7z M1600 1232 c0 -16 32 -52 46 -52 20 0 17 13 -9 38 -24
23 -37 28 -37 14z"/>
</g>
</svg>
