<?xml version="1.0" encoding="utf-8"?>
<!-- Generator: Adobe Illustrator 22.1.0, SVG Export Plug-In . SVG Version: 6.00 Build 0)  -->
<svg version="1.1" id="Layer_1" xmlns="http://www.w3.org/2000/svg" xmlns:xlink="http://www.w3.org/1999/xlink" x="0px" y="0px"
	 viewBox="0 0 254 254" style="enable-background:new 0 0 254 254;" xml:space="preserve">
<style type="text/css">
	.st0{fill:#1F1F1F;}
</style>
<g>
	<path class="st0" d="M68.7,18.1c-2.1-2.1-4.9-3.3-7.9-3.3s-5.8,1.2-7.9,3.3C5.1,65.9,2.1,141.7,45.2,192.9c1,1.2,2,2.4,3.1,3.6
		c1.4,1.5,2.9,3.1,4.5,4.7c0.4,0.4,0.8,0.8,1.2,1.2c1.2,1.1,2.4,2.3,3.5,3.3c1.2,1.1,2.4,2.1,3.6,3.1l7.6-7.6
		c9.8-9.8,17.9-21,24.1-33.2c2-3.9,3.8-7.9,5.3-12c5.6-14.7,8.5-30.5,8.5-46.3C106.6,75.1,93.1,42.6,68.7,18.1z M60.7,42.8
		c31.3,39,31.3,94.6,0,133.6C29.5,137.4,29.5,81.9,60.7,42.8z"/>
	<path class="st0" d="M211.2,193.3c-39,31.3-94.6,31.3-133.6,0C116.6,162,172.1,162,211.2,193.3z M235.9,185.3
		c-36.5-36.5-90.5-47.6-137.8-29.4c-4.1,1.6-8.1,3.3-12,5.3c-12.3,6.2-23.4,14.3-33.2,24.1l-7.6,7.6c1,1.2,2,2.4,3.1,3.6
		c1.4,1.5,2.9,3.1,4.5,4.7c0.4,0.4,0.8,0.8,1.2,1.2c1.2,1.1,2.4,2.3,3.5,3.3c1.2,1.1,2.4,2.1,3.6,3.1c24.1,20.3,53.7,30.4,83.2,30.4
		c33.2,0,66.3-12.7,91.6-38c2.1-2.1,3.3-4.9,3.3-7.9S238,187.4,235.9,185.3z"/>
</g>
</svg>
